<svg width="18" height="20" viewBox="0 0 18 20" fill="none" xmlns="http://www.w3.org/2000/svg">
<path fill-rule="evenodd" clip-rule="evenodd" d="M4.35945 0.936777C7.05645 -0.332728 10.3715 -0.310539 13.0432 0.994901C15.6886 2.32693 17.2964 4.70421 17.2815 7.26149C17.2199 9.802 15.4958 12.1901 13.3408 14.0362C12.097 15.1065 10.7055 16.0529 9.19488 16.8561C9.0393 16.929 8.86889 16.9778 8.69204 17.0001C8.52183 16.9942 8.35607 16.9535 8.20972 16.8815C5.90345 15.6747 3.88015 14.1341 2.23715 12.334C0.862341 10.8314 0.0812678 9.01606 1.43405e-06 7.13446C-0.00178331 4.57227 1.66245 2.20628 4.35945 0.936777ZM5.91816 8.19504C6.37183 9.1011 7.44267 9.69211 8.63069 9.69212C9.40898 9.69664 10.1571 9.44409 10.7084 8.99074C11.2598 8.53739 11.5684 7.9209 11.5657 7.27863C11.5698 6.29828 10.8574 5.41256 9.76098 5.03501C8.66459 4.65747 7.40053 4.86259 6.559 5.55459C5.71748 6.24659 5.46449 7.28898 5.91816 8.19504Z" fill="#6596E0"/>
<ellipse opacity="0.4" cx="8.64016" cy="19.0001" rx="6.17202" ry="1.00001" fill="#6596E0"/>
</svg>
