<svg width="60" height="60" viewBox="0 0 73 76" fill="none" xmlns="http://www.w3.org/2000/svg">
<path d="M21.8504 61.0901C21.1862 60.6576 21.1862 60.6576 20.8684 60.4332C20.2954 60.0165 20.2954 60.0165 20.0161 59.8041C19.4898 59.3862 19.4898 59.3862 19.2309 59.1706C18.7213 58.7265 18.7213 58.7265 18.4767 58.5029C17.9735 58.034 17.9656 58.0175 17.7113 57.7657C17.1808 57.224 17.1729 57.2074 16.9009 56.9109C16.3272 56.2631 16.3073 56.2365 16.0079 55.8671L15.6868 55.4595C17.6943 57.952 20.4998 60.347 23.2005 61.8629C22.3196 61.3803 22.2329 61.3283 21.8504 61.0901Z" fill="url(#paint0_linear_5_108)"/>
<path d="M48.4591 34.9962C48.7676 35.3034 49.2836 35.202 49.6116 34.7697C49.9396 34.3375 49.9555 33.7381 49.647 33.4309L47.2731 31.0671C46.9646 30.7599 46.4486 30.8613 46.1205 31.2936C45.7925 31.7258 45.7767 32.3252 46.0852 32.6324L48.4591 34.9962Z" fill="url(#paint1_linear_5_108)"/>
<path d="M43.7112 30.2686C44.0197 30.5758 44.5357 30.4744 44.8638 30.0422C45.1918 29.6099 45.2076 29.0105 44.8991 28.7033L42.5252 26.3395C42.2167 26.0324 41.7007 26.1338 41.3727 26.566C41.0447 26.9983 41.0288 27.5977 41.3373 27.9048L43.7112 30.2686Z" fill="url(#paint2_linear_5_108)"/>
<path d="M38.9634 25.5411C39.2719 25.8482 39.7879 25.7468 40.1159 25.3146C40.444 24.8823 40.4598 24.2829 40.1513 23.9758L37.7774 21.612C37.4689 21.3048 36.9529 21.4062 36.6249 21.8384C36.2968 22.2707 36.281 22.8701 36.5895 23.1773L38.9634 25.5411Z" fill="url(#paint3_linear_5_108)"/>
<path d="M42.312 37.1198C42.6204 37.4269 42.6046 38.0264 42.2766 38.4586L38.7128 43.1545C38.3848 43.5868 37.8688 43.6882 37.5603 43.381C37.2518 43.0738 37.2676 42.4744 37.5957 42.0422L41.1594 37.3462C41.4875 36.914 42.0035 36.8126 42.312 37.1198Z" fill="url(#paint4_linear_5_108)"/>
<path d="M38.9605 33.7827C39.269 34.0898 39.2532 34.6893 38.9251 35.1215L31.7977 44.5134C31.4696 44.9456 30.9536 45.047 30.6451 44.7398C30.3366 44.4327 30.3525 43.8332 30.6805 43.401L37.808 34.0091C38.136 33.5769 38.652 33.4755 38.9605 33.7827Z" fill="url(#paint5_linear_5_108)"/>
<path d="M32.0731 55.7803C31.4171 56.6448 31.3854 57.8436 32.0024 58.458C32.6193 59.0723 33.6513 58.8695 34.3074 58.005C34.9635 57.1405 34.9952 55.9417 34.3782 55.3273C33.7612 54.713 32.7292 54.9158 32.0731 55.7803Z" fill="url(#paint6_linear_5_108)"/>
<path d="M35.5737 31.7844C35.9018 31.3522 35.9176 30.7527 35.6091 30.4456C35.3006 30.1384 34.7846 30.2398 34.4566 30.672L25.5472 42.4119C25.2192 42.8441 25.2033 43.4435 25.5118 43.7507C25.8203 44.0579 26.3363 43.9565 26.6644 43.5242L35.5737 31.7844Z" fill="url(#paint7_linear_5_108)"/>
<path fill-rule="evenodd" clip-rule="evenodd" d="M53.1701 38.3185L53.1725 38.3154L53.1749 38.3123L58.5182 31.2714C59.5023 29.9747 59.5498 28.1764 58.6243 27.2549L55.641 24.2843C54.7349 23.3821 53.2238 23.7341 51.9573 24.4678C50.0218 25.589 47.8368 25.5073 46.3581 24.0349C44.8794 22.5626 44.5047 20.0954 45.2046 17.744C45.6626 16.2053 45.7566 14.4421 44.8506 13.54L41.8672 10.5694C40.9418 9.64785 39.3937 9.95204 38.4096 11.2488L13.4634 44.1203C12.4793 45.417 12.4318 47.2153 13.3573 48.1368L16.3406 51.1074C17.2467 52.0096 18.7579 51.6576 20.0243 50.9239C21.9598 49.8027 24.1448 49.8844 25.6235 51.3568C27.1022 52.8292 27.4769 55.2963 26.777 57.6477C26.319 59.1864 26.225 60.9496 27.131 61.8518L30.1144 64.8223C31.0399 65.7439 32.5879 65.4397 33.572 64.1429L53.1701 38.3185ZM52.6493 36.4204L52.0209 35.7947C51.7124 35.4875 51.1964 35.5889 50.8684 36.0211C50.5404 36.4534 50.5245 37.0528 50.833 37.36L51.4614 37.9857L32.4548 63.0306C32.1268 63.4628 31.6108 63.5642 31.3023 63.257L28.319 60.2864C28.0675 60.0361 27.9137 59.2655 28.3068 57.9449C29.2126 54.9019 28.7299 51.7017 26.8114 49.7915C24.893 47.8812 22.0592 47.7791 19.5546 49.23C18.4675 49.8597 17.78 49.7925 17.5285 49.5421L14.5452 46.5715C14.2367 46.2643 14.2525 45.6649 14.5806 45.2327L33.5871 20.1878L34.2155 20.8135C34.524 21.1207 35.04 21.0193 35.3681 20.587C35.6961 20.1548 35.7119 19.5554 35.4035 19.2482L34.7751 18.6225L39.5268 12.3611C39.8548 11.9289 40.3708 11.8275 40.6793 12.1347L43.6626 15.1053C43.9141 15.3556 44.0679 16.1262 43.6748 17.4468C42.769 20.4898 43.2517 23.69 45.1702 25.6002C47.0886 27.5105 49.9224 27.6126 52.4271 26.1617C53.5141 25.532 54.2016 25.5993 54.4531 25.8496L57.4364 28.8202C57.7449 29.1274 57.7291 29.7268 57.401 30.1591L52.6493 36.4204Z" fill="url(#paint8_linear_5_108)"/>
<g clip-path="url(#clip0_5_108)">
<g style="mix-blend-mode:multiply">
<path d="M59.5485 26.9541C59.2333 26.2022 58.8604 25.473 58.4538 24.7625C58.3292 24.4896 58.1446 24.1375 57.9963 23.8688C58.9187 25.5397 58.9878 25.6814 59.5485 26.9541Z" fill="url(#paint9_linear_5_108)" fill-opacity="0.13"/>
</g>
<g style="mix-blend-mode:color-burn">
<path d="M61.7228 37.0643C61.6942 39.6561 61.6921 39.8102 61.4923 41.3817C61.0445 44.0208 61.0351 44.1248 60.5985 45.6158L60.3915 46.2921C59.4931 49.0992 53.8609 48.2855 45.7382 43.7043C35.1919 37.7644 24.4209 27.7272 21.6865 21.2936C20.7479 19.0877 20.8736 17.5931 21.8817 16.816L22.4306 16.4004C24.5836 14.9503 24.6664 14.8911 26.0049 14.2102C28.3123 13.156 28.4038 13.1144 29.8546 12.6637L30.1936 12.5664C28.7036 12.9983 28.2932 14.3759 29.2768 16.6829C31.561 22.0614 40.5534 30.442 49.3707 35.4083C56.8959 39.6451 61.845 40.0269 61.7199 36.7062L61.7228 37.0643Z" fill="url(#paint10_linear_5_108)" fill-opacity="0.62"/>
</g>
<path d="M59.0493 49.695C57.759 52.1476 57.7122 52.2454 56.8152 53.5411C55.1491 55.7517 55.0466 55.8848 53.8214 57.1415L53.6292 57.3285C51.8271 59.1018 46.4641 57.9595 39.0907 53.8051C28.2457 47.6931 17.1853 37.3796 14.3645 30.7689C13.6563 29.1056 13.539 27.8262 13.9313 26.9576C15.1137 24.6006 15.271 24.2979 16.3994 22.6226C18.0957 20.3684 18.1378 20.3226 19.2079 19.2146L19.5854 18.8352C18.7375 19.6677 18.6831 21.1499 19.5853 23.2725C22.3942 29.8852 33.4665 40.1966 44.3115 46.3087C52.4205 50.8795 58.1045 51.7994 59.2833 49.2061L59.0493 49.695Z" fill="#6596E0" fill-opacity="0.46"/>
<g style="mix-blend-mode:color-burn">
<path d="M50.5677 59.9098C48.3991 61.3369 48.3164 61.3961 46.976 62.0645C44.6582 63.0886 44.5668 63.1301 43.1091 63.5756L43.0209 63.5973C41.0461 64.1712 37.1548 63.0612 32.1197 60.2228C23.3093 55.2617 14.31 46.8758 12.0258 41.4974C11.6933 40.71 11.5231 40.0352 11.4964 39.47C11.4972 38.503 11.5055 37.2081 11.5606 36.238C11.8673 33.5915 11.8767 33.4874 12.2298 31.9661C12.4015 31.3407 12.6139 30.4906 12.8112 29.8737C12.5426 30.7143 12.6963 31.8658 13.3232 33.3448C16.0576 39.7783 26.8218 49.8103 37.3749 55.7554C44.3045 59.6604 49.4094 60.8283 51.326 59.3425L50.5677 59.9098Z" fill="url(#paint11_linear_5_108)"/>
</g>
</g>
<defs>
<linearGradient id="paint0_linear_5_108" x1="19.4748" y1="58.612" x2="19.1003" y2="59.062" gradientUnits="userSpaceOnUse">
<stop/>
<stop offset="1" stop-color="#666666"/>
</linearGradient>
<linearGradient id="paint1_linear_5_108" x1="50.2458" y1="18.9121" x2="17.2683" y2="52.0311" gradientUnits="userSpaceOnUse">
<stop/>
<stop offset="0.105" stop-color="#666666"/>
<stop offset="0.615" stop-color="#101010"/>
</linearGradient>
<linearGradient id="paint2_linear_5_108" x1="50.2458" y1="18.9121" x2="17.2683" y2="52.0311" gradientUnits="userSpaceOnUse">
<stop/>
<stop offset="0.105" stop-color="#666666"/>
<stop offset="0.615" stop-color="#101010"/>
</linearGradient>
<linearGradient id="paint3_linear_5_108" x1="50.2458" y1="18.9121" x2="17.2683" y2="52.0311" gradientUnits="userSpaceOnUse">
<stop/>
<stop offset="0.105" stop-color="#666666"/>
<stop offset="0.615" stop-color="#101010"/>
</linearGradient>
<linearGradient id="paint4_linear_5_108" x1="50.2458" y1="18.9121" x2="17.2683" y2="52.0311" gradientUnits="userSpaceOnUse">
<stop/>
<stop offset="0.105" stop-color="#666666"/>
<stop offset="0.615" stop-color="#101010"/>
</linearGradient>
<linearGradient id="paint5_linear_5_108" x1="50.2458" y1="18.9121" x2="17.2683" y2="52.0311" gradientUnits="userSpaceOnUse">
<stop/>
<stop offset="0.105" stop-color="#666666"/>
<stop offset="0.615" stop-color="#101010"/>
</linearGradient>
<linearGradient id="paint6_linear_5_108" x1="50.2458" y1="18.9121" x2="17.2683" y2="52.0311" gradientUnits="userSpaceOnUse">
<stop/>
<stop offset="0.105" stop-color="#666666"/>
<stop offset="0.615" stop-color="#101010"/>
</linearGradient>
<linearGradient id="paint7_linear_5_108" x1="50.2458" y1="18.9121" x2="17.2683" y2="52.0311" gradientUnits="userSpaceOnUse">
<stop/>
<stop offset="0.105" stop-color="#666666"/>
<stop offset="0.615" stop-color="#101010"/>
</linearGradient>
<linearGradient id="paint8_linear_5_108" x1="50.2458" y1="18.9121" x2="17.2683" y2="52.0311" gradientUnits="userSpaceOnUse">
<stop/>
<stop offset="0.105" stop-color="#666666"/>
<stop offset="0.615" stop-color="#101010"/>
</linearGradient>
<linearGradient id="paint9_linear_5_108" x1="59.2033" y1="24.7891" x2="58.2863" y2="25.9916" gradientUnits="userSpaceOnUse">
<stop/>
<stop offset="1" stop-color="#666666"/>
</linearGradient>
<linearGradient id="paint10_linear_5_108" x1="45.9571" y1="24.5865" x2="36.2376" y2="37.3329" gradientUnits="userSpaceOnUse">
<stop/>
<stop offset="1" stop-color="#666666"/>
</linearGradient>
<linearGradient id="paint11_linear_5_108" x1="32.0913" y1="44.5753" x2="24.205" y2="54.9176" gradientUnits="userSpaceOnUse">
<stop/>
<stop offset="1" stop-color="#666666"/>
</linearGradient>
<clipPath id="clip0_5_108">
<rect width="50.8824" height="52.3837" fill="white" transform="matrix(0.795191 0.606358 -0.569179 0.822213 31.2845 1.12012)"/>
</clipPath>
</defs>
</svg>
